<svg xmlns="http://www.w3.org/2000/svg" viewBox="0 0 32 32">
  <defs>
    <linearGradient id="f" x1="0" y1="0" x2="0" y2="1">
      <stop offset="0" stop-color="#fbbf24"/>
      <stop offset="1" stop-color="#ea580c"/>
    </linearGradient>
  </defs>
  <path fill="url(#f)" d="M16 2c1 6-6 8-6 15a6 6 0 0 0 12 0c0-3-1.5-4.5-2.5-6-.7 1.6-1.6 2.3-2.7 2.7C18 10 19 6 16 2z"/>
  <path fill="#fef3c7" d="M16 28a4.2 4.2 0 0 1-4.2-4.2c0-2.6 2.2-3.6 3-6 1.6 1.2 5.4 3.1 5.4 6A4.2 4.2 0 0 1 16 28z" opacity=".85"/>
</svg>
